PathFileType	4	(X/Y/Z)	C:\Users\86182\Documents\cortex\Trimmed_M4_H12.trc
DataRate	CameraRate	NumFrames	NumMarkers	Units	OrigDataRate	OrigDataStartFrame	OrigNumFrames
100.00	100.00	       112	2	mm	100.00	721	       901
Frame#	Time	gripper			box			
		X1	Y1	Z1	X2	Y2	Z2	

721	7.200	276.08493	151.05951	292.29886	278.03580	147.66826	155.99615	
722	7.210	276.08182	151.05867	292.29993	278.03879	147.66849	155.99603	
723	7.220	276.08026	151.05878	292.30035	278.04138	147.66875	155.99594	
724	7.230	276.08011	151.05971	292.30017	278.04233	147.66876	155.99588	
725	7.240	276.08130	151.06142	292.29938	278.04095	147.66833	155.99576	
726	7.250	276.08365	151.06369	292.29816	278.03726	147.66742	155.99554	
727	7.260	276.08652	151.06598	292.29675	278.03186	147.66605	155.99524	
728	7.270	276.08875	151.06747	292.29553	278.02551	147.66444	155.99487	
729	7.280	276.08948	151.06743	292.29480	278.01877	147.66275	155.99451	
730	7.290	276.08829	151.06555	292.29477	278.01233	147.66113	155.99417	
731	7.300	276.08521	151.06201	292.29550	278.00702	147.65977	155.99387	
732	7.310	276.08078	151.05728	292.29688	278.00357	147.65895	155.99373	
733	7.320	276.07590	151.05217	292.29858	278.00259	147.65898	155.99384	
734	7.330	276.07181	151.04774	292.30017	278.00436	147.66000	155.99420	
735	7.340	276.06961	151.04507	292.30124	278.00873	147.66208	155.99493	
736	7.350	276.07028	151.04488	292.30151	278.01532	147.66510	155.99594	
737	7.360	276.07434	151.04736	292.30072	278.02347	147.66884	155.99715	
738	7.370	276.08157	151.05231	292.29883	278.03207	147.67276	155.99835	
739	7.380	276.09067	151.05890	292.29608	278.03928	147.67598	155.99928	
740	7.390	276.09964	151.06587	292.29291	278.04333	147.67766	155.99963	
741	7.400	276.10623	151.07172	292.28986	278.04321	147.67725	155.99930	
742	7.410	276.10904	151.07526	292.28741	278.03918	147.67464	155.99826	
743	7.420	276.10757	151.07602	292.28604	278.03281	147.67046	155.99667	
744	7.430	276.10254	151.07423	292.28616	278.02637	147.66583	155.99487	
745	7.440	276.09497	151.07045	292.28790	278.02173	147.66179	155.99326	
746	7.450	276.08554	151.06508	292.29135	278.01971	147.65903	155.99210	
747	7.460	276.07489	151.05858	292.29617	278.02042	147.65768	155.99149	
748	7.470	276.06396	151.05168	292.30161	278.02347	147.65735	155.99118	
749	7.480	276.05438	151.04555	292.30664	278.02795	147.65738	155.99092	
750	7.490	276.04797	151.04134	292.31024	278.03271	147.65732	155.99054	
751	7.500	276.04611	151.04001	292.31183	278.03668	147.65704	155.99004	
752	7.510	276.04956	151.04196	292.31104	278.03928	147.65681	155.98959	
753	7.520	276.05823	151.04709	292.30795	278.04062	147.65694	155.98938	
754	7.530	276.07104	151.05469	292.30301	278.04114	147.65768	155.98956	
755	7.540	276.08585	151.06348	292.29715	278.04111	147.65903	155.99011	
756	7.550	276.09970	151.07176	292.29169	278.04037	147.66069	155.99097	
757	7.560	276.10971	151.07787	292.28790	278.03882	147.66238	155.99200	
758	7.570	276.11386	151.08069	292.28671	278.03693	147.66418	155.99323	
759	7.580	276.11154	151.08000	292.28824	278.03537	147.66632	155.99464	
760	7.590	276.10342	151.07635	292.29196	278.03439	147.66869	155.99615	
761	7.600	276.09119	151.07072	292.29706	278.03348	147.67073	155.99747	
762	7.610	276.07681	151.06418	292.30273	278.03159	147.67180	155.99829	
763	7.620	276.06265	151.05772	292.30807	278.02802	147.67143	155.99844	
764	7.630	276.05112	151.05225	292.31226	278.02307	147.66972	155.99792	
765	7.640	276.04425	151.04849	292.31467	278.01807	147.66728	155.99698	
766	7.650	276.04291	151.04688	292.31509	278.01480	147.66489	155.99586	
767	7.660	276.04678	151.04752	292.31381	278.01486	147.66321	155.99484	
768	7.670	276.05515	151.05040	292.31122	278.01910	147.66257	155.99405	
769	7.680	276.06699	151.05531	292.30771	278.02737	147.66292	155.99345	
770	7.690	276.08084	151.06160	292.30365	278.03860	147.66403	155.99309	
771	7.700	276.09479	151.06819	292.29956	278.05093	147.66573	155.99298	
772	7.710	276.10675	151.07382	292.29596	278.06223	147.66769	155.99313	
773	7.720	276.11508	151.07748	292.29327	278.07068	147.66949	155.99344	
774	7.730	276.11880	151.07854	292.29172	278.07498	147.67068	155.99380	
775	7.740	276.11780	151.07695	292.29138	278.07425	147.67105	155.99417	
776	7.750	276.11243	151.07317	292.29227	278.06848	147.67061	155.99448	
777	7.760	276.10342	151.06787	292.29431	278.05890	147.66957	155.99481	
778	7.770	276.09207	151.06200	292.29730	278.04788	147.66835	155.99512	
779	7.780	276.08008	151.05644	292.30084	278.03784	147.66743	155.99551	
780	7.790	276.06931	151.05199	292.30426	278.03033	147.66718	155.99603	
781	7.800	276.06125	151.04927	292.30701	278.02585	147.66769	155.99670	
782	7.810	276.05692	151.04866	292.30862	278.02435	147.66893	155.99753	
783	7.820	276.05667	151.05020	292.30890	278.02554	147.67079	155.99844	
784	7.830	276.06033	151.05357	292.30786	278.02878	147.67310	155.99940	
785	7.840	276.06726	151.05815	292.30573	278.03326	147.67561	156.00037	
786	7.850	276.07635	151.06317	292.30286	278.03812	147.67804	156.00124	
787	7.860	276.08615	151.06796	292.29984	278.04248	147.67998	156.00189	
788	7.870	276.09503	151.07191	292.29712	278.04587	147.68117	156.00226	
789	7.880	276.10147	151.07448	292.29523	278.04797	147.68141	156.00223	
790	7.890	276.10455	151.07529	292.29431	278.04892	147.68069	156.00183	
791	7.900	276.10406	151.07420	292.29456	278.04916	147.67926	156.00107	
792	7.910	276.10037	151.07146	292.29578	278.04941	147.67754	156.00015	
793	7.920	276.09442	151.06760	292.29767	278.04999	147.67596	155.99930	
794	7.930	276.08749	151.06340	292.29987	278.05075	147.67485	155.99863	
795	7.940	276.08109	151.05965	292.30182	278.05133	147.67421	155.99826	
796	7.950	276.07642	151.05696	292.30316	278.05148	147.67384	155.99805	
797	7.960	276.07437	151.05573	292.30353	278.05081	147.67343	155.99783	
798	7.970	276.07559	151.05623	292.30283	278.04904	147.67271	155.99756	
799	7.980	276.08014	151.05855	292.30099	278.04626	147.67172	155.99721	
800	7.990	276.08731	151.06241	292.29837	278.04312	147.67067	155.99683	
801	8.000	276.09543	151.06705	292.29541	278.04034	147.66977	155.99649	
802	8.010	276.10278	151.07149	292.29269	278.03836	147.66905	155.99615	
803	8.020	276.10800	151.07480	292.29059	278.03729	147.66847	155.99583	
804	8.030	276.11026	151.07632	292.28943	278.03711	147.66803	155.99553	
805	8.040	276.10886	151.07574	292.28961	278.03757	147.66769	155.99530	
806	8.050	276.10358	151.07307	292.29135	278.03842	147.66747	155.99515	
807	8.060	276.09491	151.06873	292.29449	278.03949	147.66739	155.99512	
808	8.070	276.08420	151.06339	292.29849	278.04074	147.66762	155.99524	
809	8.080	276.07309	151.05795	292.30273	278.04205	147.66820	155.99554	
810	8.090	276.06317	151.05319	292.30658	278.04343	147.66893	155.99591	
811	8.100	276.05569	151.04968	292.30951	278.04465	147.66946	155.99611	
812	8.110	276.05170	151.04788	292.31110	278.04559	147.66951	155.99606	
813	8.120	276.05188	151.04807	292.31116	278.04642	147.66914	155.99579	
814	8.130	276.05637	151.05029	292.30969	278.04727	147.66867	155.99542	
815	8.140	276.06470	151.05438	292.30695	278.04810	147.66843	155.99521	
816	8.150	276.07571	151.05983	292.30344	278.04849	147.66861	155.99527	
817	8.160	276.08752	151.06575	292.29974	278.04800	147.66896	155.99550	
818	8.170	276.09808	151.07112	292.29660	278.04611	147.66905	155.99570	
819	8.180	276.10565	151.07498	292.29440	278.04248	147.66861	155.99576	
820	8.190	276.10904	151.07668	292.29343	278.03699	147.66760	155.99564	
821	8.200	276.10782	151.07591	292.29376	278.03009	147.66612	155.99539	
822	8.210	276.10220	151.07275	292.29529	278.02289	147.66440	155.99503	
823	8.220	276.09317	151.06766	292.29782	278.01682	147.66267	155.99457	
824	8.230	276.08234	151.06148	292.30090	278.01318	147.66119	155.99408	
825	8.240	276.07205	151.05540	292.30396	278.01291	147.66020	155.99356	
826	8.250	276.06451	151.05072	292.30627	278.01617	147.65974	155.99307	
827	8.260	276.06122	151.04829	292.30743	278.02234	147.65973	155.99263	
828	8.270	276.06265	151.04855	292.30725	278.03030	147.65994	155.99219	
829	8.280	276.06833	151.05132	292.30588	278.03894	147.66026	155.99173	
830	8.290	276.07684	151.05595	292.30365	278.04764	147.66066	155.99135	
831	8.300	276.08649	151.06146	292.30099	278.05588	147.66106	155.99103	
832	8.310	276.09586	151.06699	292.29828	278.06299	147.66133	155.99074	
